<svg width="1170" height="314" viewBox="0 0 1170 314" fill="none" xmlns="http://www.w3.org/2000/svg">
<rect x="1" y="1" width="1168" height="312" rx="16" stroke="#EBEBEB" stroke-opacity="0.8" stroke-width="2"/>
<rect x="137" y="54" width="99.6774" height="90" rx="15" fill="#79E28A"/>
<g clip-path="url(#clip0_2_67)">
<path d="M186.034 67.9717C179.337 74.6818 175.59 84.0717 175.755 93.7365L175.755 97.1145L172.163 97.1145L168.359 103.911L168.359 112.359L175.755 112.359L175.755 112.359L176.137 112.359L177.986 117.687L180.279 117.687L180.279 123.296L182.929 123.296L182.929 117.687L185.641 117.687L185.641 129.565L188.29 129.565L188.291 117.687L191.003 117.687V123.296L193.653 123.296L193.653 117.687L195.946 117.687L197.795 112.359L205.573 112.359L205.573 103.913L201.778 97.1148L198.177 97.1149L198.177 93.737C198.262 89.1367 197.419 84.4113 195.74 80.0708C192.552 71.8282 187.515 67.6875 186.972 67.0324L186.034 67.9717ZM171.008 104.603L173.717 99.7642L175.755 99.7641L175.755 109.71L171.008 109.71L171.008 104.603ZM194.061 115.038L179.871 115.038L178.942 112.359L194.99 112.359L194.061 115.038ZM200.223 99.7645L202.924 104.602L202.923 109.71L198.177 109.71V99.7647L200.223 99.7645ZM195.528 93.6999L195.528 97.1151L195.527 97.1151L195.528 109.709L178.404 109.71C178.404 108.447 178.404 98.3328 178.404 97.1145C178.404 96.7203 178.404 98.454 178.404 93.7018C178.257 85.2094 181.366 76.9495 186.972 70.8244C192.583 76.9534 195.687 85.2124 195.528 93.6999Z" fill="white"/>
<path d="M193.007 91.106C193.007 87.7724 190.297 85.0603 186.967 85.0603C185.357 85.0603 183.841 85.6888 182.7 86.8301C180.344 89.186 180.327 92.9998 182.698 95.3695C183.84 96.511 185.356 97.1396 186.967 97.1396C190.266 97.1394 193.007 94.4543 193.007 91.106ZM184.573 88.7036C185.214 88.0628 186.064 87.7098 186.967 87.7098C188.837 87.7099 190.357 89.2334 190.357 91.106C190.357 92.0029 190.004 92.85 189.363 93.4915C188.022 94.832 185.89 94.8141 184.571 93.4954C183.93 92.8549 183.261 90.0158 184.573 88.7036Z" fill="white"/>
</g>
<path d="M138.484 203.432C136.636 203.432 135.04 203.108 133.696 202.46C132.376 201.812 131.332 200.924 130.564 199.796C129.82 198.644 129.388 197.348 129.268 195.908H133.768C133.984 196.94 134.512 197.804 135.352 198.5C136.192 199.172 137.236 199.508 138.484 199.508C139.828 199.508 140.92 199.016 141.76 198.032C142.624 197.048 143.056 195.824 143.056 194.36C143.056 192.848 142.624 191.648 141.76 190.76C140.92 189.872 139.852 189.428 138.556 189.428C137.476 189.428 136.54 189.692 135.748 190.22C134.956 190.748 134.392 191.408 134.056 192.2H129.628L131.788 177.8H145.756V181.832H135.244L134.092 187.664C134.62 187.088 135.34 186.62 136.252 186.26C137.164 185.876 138.184 185.684 139.312 185.684C141.112 185.684 142.612 186.092 143.812 186.908C145.012 187.7 145.924 188.756 146.548 190.076C147.172 191.372 147.484 192.788 147.484 194.324C147.484 196.076 147.1 197.636 146.332 199.004C145.588 200.372 144.532 201.452 143.164 202.244C141.82 203.036 140.26 203.432 138.484 203.432ZM150.844 203V199.652C152.38 198.38 153.868 197.12 155.308 195.872C156.772 194.624 158.068 193.388 159.196 192.164C160.348 190.94 161.26 189.752 161.932 188.6C162.628 187.424 162.976 186.284 162.976 185.18C162.976 184.148 162.688 183.236 162.112 182.444C161.56 181.652 160.636 181.256 159.34 181.256C158.02 181.256 157.024 181.688 156.352 182.552C155.68 183.416 155.344 184.46 155.344 185.684H150.88C150.928 183.836 151.336 182.3 152.104 181.076C152.872 179.828 153.892 178.904 155.164 178.304C156.436 177.68 157.864 177.368 159.448 177.368C162.016 177.368 164.008 178.076 165.424 179.492C166.864 180.884 167.584 182.696 167.584 184.928C167.584 186.32 167.26 187.676 166.612 188.996C165.988 190.316 165.16 191.588 164.128 192.812C163.096 194.036 161.98 195.188 160.78 196.268C159.58 197.324 158.416 198.308 157.288 199.22H168.196V203H150.844ZM182.178 203.432C179.85 203.432 177.858 202.892 176.202 201.812C174.546 200.708 173.262 199.184 172.35 197.24C171.462 195.272 171.018 192.992 171.018 190.4C171.018 187.832 171.462 185.564 172.35 183.596C173.262 181.628 174.546 180.104 176.202 179.024C177.858 177.92 179.85 177.368 182.178 177.368C184.506 177.368 186.498 177.92 188.154 179.024C189.81 180.104 191.082 181.628 191.97 183.596C192.882 185.564 193.338 187.832 193.338 190.4C193.338 192.992 192.882 195.272 191.97 197.24C191.082 199.184 189.81 200.708 188.154 201.812C186.498 202.892 184.506 203.432 182.178 203.432ZM182.178 199.292C184.074 199.292 185.622 198.5 186.822 196.916C188.022 195.332 188.622 193.16 188.622 190.4C188.622 187.64 188.022 185.468 186.822 183.884C185.622 182.3 184.074 181.508 182.178 181.508C180.258 181.508 178.698 182.3 177.498 183.884C176.322 185.468 175.734 187.64 175.734 190.4C175.734 193.16 176.322 195.332 177.498 196.916C178.698 198.5 180.258 199.292 182.178 199.292ZM207.737 203.432C205.409 203.432 203.417 202.892 201.761 201.812C200.105 200.708 198.821 199.184 197.909 197.24C197.021 195.272 196.577 192.992 196.577 190.4C196.577 187.832 197.021 185.564 197.909 183.596C198.821 181.628 200.105 180.104 201.761 179.024C203.417 177.92 205.409 177.368 207.737 177.368C210.065 177.368 212.057 177.92 213.713 179.024C215.369 180.104 216.641 181.628 217.529 183.596C218.441 185.564 218.897 187.832 218.897 190.4C218.897 192.992 218.441 195.272 217.529 197.24C216.641 199.184 215.369 200.708 213.713 201.812C212.057 202.892 210.065 203.432 207.737 203.432ZM207.737 199.292C209.633 199.292 211.181 198.5 212.381 196.916C213.581 195.332 214.181 193.16 214.181 190.4C214.181 187.64 213.581 185.468 212.381 183.884C211.181 182.3 209.633 181.508 207.737 181.508C205.817 181.508 204.257 182.3 203.057 183.884C201.881 185.468 201.293 187.64 201.293 190.4C201.293 193.16 201.881 195.332 203.057 196.916C204.257 198.5 205.817 199.292 207.737 199.292ZM222.532 194.504V190.652H229.3V184.424H233.224V190.652H239.956V194.504H233.224V200.732H229.3V194.504H222.532Z" fill="#3D3D3F"/>
<path opacity="0.7" d="M68.776 251V234.2H74.296C75.608 234.2 76.688 234.416 77.536 234.848C78.384 235.28 79.008 235.864 79.408 236.6C79.824 237.336 80.032 238.168 80.032 239.096C80.032 240.008 79.832 240.832 79.432 241.568C79.032 242.304 78.408 242.896 77.56 243.344C76.712 243.776 75.624 243.992 74.296 243.992H70.792V251H68.776ZM70.792 242.288H74.248C75.592 242.288 76.544 242.008 77.104 241.448C77.68 240.872 77.968 240.088 77.968 239.096C77.968 238.088 77.68 237.304 77.104 236.744C76.544 236.168 75.592 235.88 74.248 235.88H70.792V242.288ZM82.5544 251V239.096H84.3784L84.5464 241.376C84.9144 240.592 85.4744 239.968 86.2264 239.504C86.9784 239.04 87.9064 238.808 89.0104 238.808V240.92H88.4584C87.7544 240.92 87.1064 241.048 86.5144 241.304C85.9224 241.544 85.4504 241.96 85.0984 242.552C84.7464 243.144 84.5704 243.96 84.5704 245V251H82.5544ZM96.2519 251.288C95.1319 251.288 94.1239 251.032 93.2279 250.52C92.3319 250.008 91.6199 249.288 91.0919 248.36C90.5799 247.416 90.3239 246.312 90.3239 245.048C90.3239 243.784 90.5879 242.688 91.1159 241.76C91.6439 240.816 92.3559 240.088 93.2519 239.576C94.1639 239.064 95.1799 238.808 96.2999 238.808C97.4199 238.808 98.4279 239.064 99.3239 239.576C100.22 240.088 100.924 240.816 101.436 241.76C101.964 242.688 102.228 243.784 102.228 245.048C102.228 246.312 101.964 247.416 101.436 248.36C100.908 249.288 100.188 250.008 99.2759 250.52C98.3799 251.032 97.3719 251.288 96.2519 251.288ZM96.2519 249.56C96.9399 249.56 97.5799 249.392 98.1719 249.056C98.7639 248.72 99.2439 248.216 99.6119 247.544C99.9799 246.872 100.164 246.04 100.164 245.048C100.164 244.056 99.9799 243.224 99.6119 242.552C99.2599 241.88 98.7879 241.376 98.1959 241.04C97.6039 240.704 96.9719 240.536 96.2999 240.536C95.6119 240.536 94.9719 240.704 94.3799 241.04C93.7879 241.376 93.3079 241.88 92.9399 242.552C92.5719 243.224 92.3879 244.056 92.3879 245.048C92.3879 246.04 92.5719 246.872 92.9399 247.544C93.3079 248.216 93.7799 248.72 94.3559 249.056C94.9479 249.392 95.5799 249.56 96.2519 249.56ZM106.351 236.456C105.967 236.456 105.639 236.328 105.367 236.072C105.095 235.8 104.959 235.464 104.959 235.064C104.959 234.68 105.095 234.36 105.367 234.104C105.639 233.848 105.967 233.72 106.351 233.72C106.735 233.72 107.055 233.848 107.311 234.104C107.583 234.36 107.719 234.68 107.719 235.064C107.719 235.464 107.583 235.8 107.311 236.072C107.055 236.328 106.735 236.456 106.351 236.456ZM102.703 256.28V254.552H103.639C104.231 254.552 104.655 254.424 104.911 254.168C105.183 253.928 105.319 253.512 105.319 252.92V239.096H107.335V252.968C107.335 254.12 107.047 254.96 106.471 255.488C105.895 256.016 105.055 256.28 103.951 256.28H102.703ZM116.196 251.288C115.06 251.288 114.052 251.032 113.172 250.52C112.292 249.992 111.596 249.264 111.084 248.336C110.588 247.408 110.34 246.312 110.34 245.048C110.34 243.8 110.588 242.712 111.084 241.784C111.58 240.84 112.268 240.112 113.148 239.6C114.044 239.072 115.076 238.808 116.243 238.808C117.396 238.808 118.388 239.072 119.22 239.6C120.068 240.112 120.716 240.792 121.164 241.64C121.612 242.488 121.836 243.4 121.836 244.376C121.836 244.552 121.828 244.728 121.812 244.904C121.812 245.08 121.812 245.28 121.812 245.504H112.332C112.38 246.416 112.588 247.176 112.956 247.784C113.34 248.376 113.812 248.824 114.372 249.128C114.948 249.432 115.556 249.584 116.196 249.584C117.028 249.584 117.724 249.392 118.284 249.008C118.844 248.624 119.252 248.104 119.508 247.448H121.5C121.18 248.552 120.564 249.472 119.652 250.208C118.756 250.928 117.604 251.288 116.196 251.288ZM116.196 240.512C115.236 240.512 114.38 240.808 113.628 241.4C112.892 241.976 112.468 242.824 112.355 243.944H119.844C119.796 242.872 119.428 242.032 118.74 241.424C118.052 240.816 117.204 240.512 116.196 240.512ZM129.98 251.288C128.844 251.288 127.82 251.032 126.908 250.52C126.012 249.992 125.3 249.264 124.772 248.336C124.26 247.392 124.004 246.296 124.004 245.048C124.004 243.8 124.26 242.712 124.772 241.784C125.3 240.84 126.012 240.112 126.908 239.6C127.82 239.072 128.844 238.808 129.98 238.808C131.388 238.808 132.572 239.176 133.532 239.912C134.508 240.648 135.124 241.632 135.38 242.864H133.316C133.156 242.128 132.764 241.56 132.14 241.16C131.516 240.744 130.788 240.536 129.956 240.536C129.284 240.536 128.652 240.704 128.06 241.04C127.468 241.376 126.988 241.88 126.62 242.552C126.252 243.224 126.068 244.056 126.068 245.048C126.068 246.04 126.252 246.872 126.62 247.544C126.988 248.216 127.468 248.728 128.06 249.08C128.652 249.416 129.284 249.584 129.956 249.584C130.788 249.584 131.516 249.384 132.14 248.984C132.764 248.568 133.156 247.984 133.316 247.232H135.38C135.14 248.432 134.532 249.408 133.556 250.16C132.58 250.912 131.388 251.288 129.98 251.288ZM142.571 251C141.483 251 140.627 250.736 140.003 250.208C139.379 249.68 139.067 248.728 139.067 247.352V240.8H137.003V239.096H139.067L139.331 236.24H141.083V239.096H144.587V240.8H141.083V247.352C141.083 248.104 141.235 248.616 141.539 248.888C141.843 249.144 142.379 249.272 143.147 249.272H144.395V251H142.571ZM151.708 251.288C150.284 251.288 149.1 250.928 148.156 250.208C147.212 249.488 146.66 248.512 146.5 247.28H148.564C148.692 247.904 149.02 248.448 149.548 248.912C150.092 249.36 150.82 249.584 151.732 249.584C152.58 249.584 153.204 249.408 153.604 249.056C154.004 248.688 154.204 248.256 154.204 247.76C154.204 247.04 153.94 246.56 153.412 246.32C152.9 246.08 152.172 245.864 151.228 245.672C150.588 245.544 149.948 245.36 149.308 245.12C148.668 244.88 148.132 244.544 147.7 244.112C147.268 243.664 147.052 243.08 147.052 242.36C147.052 241.32 147.436 240.472 148.204 239.816C148.988 239.144 150.044 238.808 151.372 238.808C152.636 238.808 153.668 239.128 154.468 239.768C155.284 240.392 155.756 241.288 155.884 242.456H153.892C153.812 241.848 153.548 241.376 153.1 241.04C152.668 240.688 152.084 240.512 151.348 240.512C150.628 240.512 150.068 240.664 149.668 240.968C149.284 241.272 149.092 241.672 149.092 242.168C149.092 242.648 149.34 243.024 149.836 243.296C150.348 243.568 151.036 243.8 151.9 243.992C152.636 244.152 153.332 244.352 153.988 244.592C154.66 244.816 155.204 245.16 155.62 245.624C156.052 246.072 156.268 246.728 156.268 247.592C156.284 248.664 155.876 249.552 155.044 250.256C154.228 250.944 153.116 251.288 151.708 251.288ZM170.972 251.288C169.836 251.288 168.812 251.032 167.9 250.52C167.004 249.992 166.292 249.264 165.764 248.336C165.252 247.392 164.996 246.296 164.996 245.048C164.996 243.8 165.252 242.712 165.764 241.784C166.292 240.84 167.004 240.112 167.9 239.6C168.812 239.072 169.836 238.808 170.972 238.808C172.38 238.808 173.564 239.176 174.524 239.912C175.5 240.648 176.116 241.632 176.372 242.864H174.308C174.148 242.128 173.756 241.56 173.132 241.16C172.508 240.744 171.78 240.536 170.948 240.536C170.276 240.536 169.644 240.704 169.052 241.04C168.46 241.376 167.98 241.88 167.612 242.552C167.244 243.224 167.06 244.056 167.06 245.048C167.06 246.04 167.244 246.872 167.612 247.544C167.98 248.216 168.46 248.728 169.052 249.08C169.644 249.416 170.276 249.584 170.948 249.584C171.78 249.584 172.508 249.384 173.132 248.984C173.756 248.568 174.148 247.984 174.308 247.232H176.372C176.132 248.432 175.524 249.408 174.548 250.16C173.572 250.912 172.38 251.288 170.972 251.288ZM184.611 251.288C183.491 251.288 182.483 251.032 181.587 250.52C180.691 250.008 179.979 249.288 179.451 248.36C178.939 247.416 178.683 246.312 178.683 245.048C178.683 243.784 178.947 242.688 179.475 241.76C180.003 240.816 180.715 240.088 181.611 239.576C182.523 239.064 183.539 238.808 184.659 238.808C185.779 238.808 186.787 239.064 187.683 239.576C188.579 240.088 189.283 240.816 189.795 241.76C190.323 242.688 190.587 243.784 190.587 245.048C190.587 246.312 190.323 247.416 189.795 248.36C189.267 249.288 188.547 250.008 187.635 250.52C186.739 251.032 185.731 251.288 184.611 251.288ZM184.611 249.56C185.299 249.56 185.939 249.392 186.531 249.056C187.123 248.72 187.603 248.216 187.971 247.544C188.339 246.872 188.523 246.04 188.523 245.048C188.523 244.056 188.339 243.224 187.971 242.552C187.619 241.88 187.147 241.376 186.555 241.04C185.963 240.704 185.331 240.536 184.659 240.536C183.971 240.536 183.331 240.704 182.739 241.04C182.147 241.376 181.667 241.88 181.299 242.552C180.931 243.224 180.747 244.056 180.747 245.048C180.747 246.04 180.931 246.872 181.299 247.544C181.667 248.216 182.139 248.72 182.715 249.056C183.307 249.392 183.939 249.56 184.611 249.56ZM193.39 251V239.096H195.214L195.358 240.824C195.742 240.184 196.254 239.688 196.894 239.336C197.534 238.984 198.254 238.808 199.054 238.808C199.998 238.808 200.806 239 201.478 239.384C202.166 239.768 202.694 240.352 203.062 241.136C203.478 240.416 204.046 239.848 204.766 239.432C205.502 239.016 206.294 238.808 207.142 238.808C208.566 238.808 209.702 239.24 210.55 240.104C211.398 240.952 211.822 242.264 211.822 244.04V251H209.83V244.256C209.83 243.024 209.582 242.096 209.086 241.472C208.59 240.848 207.878 240.536 206.95 240.536C205.99 240.536 205.19 240.912 204.55 241.664C203.926 242.4 203.614 243.456 203.614 244.832V251H201.598V244.256C201.598 243.024 201.35 242.096 200.854 241.472C200.358 240.848 199.646 240.536 198.718 240.536C197.774 240.536 196.982 240.912 196.342 241.664C195.718 242.4 195.406 243.456 195.406 244.832V251H193.39ZM214.859 256.28V239.096H216.683L216.875 241.064C217.259 240.488 217.803 239.968 218.507 239.504C219.227 239.04 220.139 238.808 221.243 238.808C222.427 238.808 223.459 239.08 224.339 239.624C225.219 240.168 225.899 240.912 226.379 241.856C226.875 242.8 227.123 243.872 227.123 245.072C227.123 246.272 226.875 247.344 226.379 248.288C225.899 249.216 225.211 249.952 224.315 250.496C223.435 251.024 222.403 251.288 221.219 251.288C220.243 251.288 219.371 251.088 218.603 250.688C217.851 250.288 217.275 249.728 216.875 249.008V256.28H214.859ZM221.003 249.536C221.803 249.536 222.507 249.352 223.115 248.984C223.723 248.6 224.203 248.072 224.555 247.4C224.907 246.728 225.083 245.944 225.083 245.048C225.083 244.152 224.907 243.368 224.555 242.696C224.203 242.024 223.723 241.504 223.115 241.136C222.507 240.752 221.803 240.56 221.003 240.56C220.203 240.56 219.499 240.752 218.891 241.136C218.283 241.504 217.803 242.024 217.451 242.696C217.099 243.368 216.923 244.152 216.923 245.048C216.923 245.944 217.099 246.728 217.451 247.4C217.803 248.072 218.283 248.6 218.891 248.984C219.499 249.352 220.203 249.536 221.003 249.536ZM229.929 251V233.72H231.945V251H229.929ZM240.602 251.288C239.466 251.288 238.458 251.032 237.578 250.52C236.698 249.992 236.002 249.264 235.49 248.336C234.994 247.408 234.746 246.312 234.746 245.048C234.746 243.8 234.994 242.712 235.49 241.784C235.986 240.84 236.674 240.112 237.554 239.6C238.45 239.072 239.482 238.808 240.65 238.808C241.802 238.808 242.794 239.072 243.626 239.6C244.474 240.112 245.122 240.792 245.57 241.64C246.018 242.488 246.242 243.4 246.242 244.376C246.242 244.552 246.234 244.728 246.218 244.904C246.218 245.08 246.218 245.28 246.218 245.504H236.738C236.786 246.416 236.994 247.176 237.362 247.784C237.746 248.376 238.218 248.824 238.778 249.128C239.354 249.432 239.962 249.584 240.602 249.584C241.434 249.584 242.13 249.392 242.69 249.008C243.25 248.624 243.658 248.104 243.914 247.448H245.906C245.586 248.552 244.97 249.472 244.058 250.208C243.162 250.928 242.01 251.288 240.602 251.288ZM240.602 240.512C239.642 240.512 238.786 240.808 238.034 241.4C237.298 241.976 236.874 242.824 236.762 243.944H244.25C244.202 242.872 243.834 242.032 243.146 241.424C242.458 240.816 241.61 240.512 240.602 240.512ZM253.219 251C252.131 251 251.275 250.736 250.651 250.208C250.027 249.68 249.715 248.728 249.715 247.352V240.8H247.651V239.096H249.715L249.979 236.24H251.731V239.096H255.235V240.8H251.731V247.352C251.731 248.104 251.883 248.616 252.187 248.888C252.491 249.144 253.027 249.272 253.795 249.272H255.043V251H253.219ZM262.821 251.288C261.685 251.288 260.677 251.032 259.797 250.52C258.917 249.992 258.221 249.264 257.709 248.336C257.213 247.408 256.965 246.312 256.965 245.048C256.965 243.8 257.213 242.712 257.709 241.784C258.205 240.84 258.893 240.112 259.773 239.6C260.669 239.072 261.701 238.808 262.868 238.808C264.021 238.808 265.013 239.072 265.845 239.6C266.693 240.112 267.341 240.792 267.789 241.64C268.237 242.488 268.461 243.4 268.461 244.376C268.461 244.552 268.453 244.728 268.437 244.904C268.437 245.08 268.437 245.28 268.437 245.504H258.957C259.005 246.416 259.213 247.176 259.581 247.784C259.965 248.376 260.437 248.824 260.997 249.128C261.573 249.432 262.181 249.584 262.821 249.584C263.653 249.584 264.349 249.392 264.909 249.008C265.469 248.624 265.877 248.104 266.133 247.448H268.125C267.805 248.552 267.189 249.472 266.277 250.208C265.381 250.928 264.229 251.288 262.821 251.288ZM262.821 240.512C261.861 240.512 261.005 240.808 260.253 241.4C259.517 241.976 259.093 242.824 258.98 243.944H266.469C266.421 242.872 266.053 242.032 265.365 241.424C264.677 240.816 263.829 240.512 262.821 240.512ZM276.533 251.288C275.349 251.288 274.309 251.016 273.413 250.472C272.533 249.928 271.845 249.184 271.349 248.24C270.869 247.296 270.629 246.224 270.629 245.024C270.629 243.824 270.877 242.76 271.373 241.832C271.869 240.888 272.557 240.152 273.437 239.624C274.317 239.08 275.357 238.808 276.557 238.808C277.533 238.808 278.397 239.008 279.149 239.408C279.901 239.808 280.485 240.368 280.901 241.088V233.72H282.917V251H281.093L280.901 249.032C280.517 249.608 279.965 250.128 279.245 250.592C278.525 251.056 277.621 251.288 276.533 251.288ZM276.749 249.536C277.549 249.536 278.253 249.352 278.861 248.984C279.485 248.6 279.965 248.072 280.301 247.4C280.653 246.728 280.829 245.944 280.829 245.048C280.829 244.152 280.653 243.368 280.301 242.696C279.965 242.024 279.485 241.504 278.861 241.136C278.253 240.752 277.549 240.56 276.749 240.56C275.965 240.56 275.261 240.752 274.637 241.136C274.029 241.504 273.549 242.024 273.197 242.696C272.861 243.368 272.693 244.152 272.693 245.048C272.693 245.944 272.861 246.728 273.197 247.4C273.549 248.072 274.029 248.6 274.637 248.984C275.261 249.352 275.965 249.536 276.749 249.536Z" fill="#3D3D3F"/>
<rect x="573" y="54" width="99.68" height="90.0023" rx="22" fill="#60DAFF"/>
<g clip-path="url(#clip1_2_67)">
<path d="M623 94.2148C627.685 94.2148 631.496 90.4035 631.496 85.7188C631.496 81.034 627.685 77.2227 623 77.2227C618.315 77.2227 614.504 81.034 614.504 85.7188C614.504 90.4035 618.315 94.2148 623 94.2148ZM623 80.1523C626.069 80.1523 628.566 82.6494 628.566 85.7188C628.566 88.7881 626.069 91.2852 623 91.2852C619.931 91.2852 617.434 88.7881 617.434 85.7188C617.434 82.6494 619.931 80.1523 623 80.1523Z" fill="white"/>
<path d="M640.187 94.2148C643.149 94.2148 645.559 91.8054 645.559 88.8438C645.559 85.8821 643.149 83.4727 640.187 83.4727C637.226 83.4727 634.816 85.8821 634.816 88.8438C634.816 91.8054 637.226 94.2148 640.187 94.2148ZM640.187 86.4023C641.534 86.4023 642.629 87.4976 642.629 88.8438C642.629 90.1899 641.534 91.2852 640.187 91.2852C638.841 91.2852 637.746 90.1899 637.746 88.8438C637.746 87.4976 638.841 86.4023 640.187 86.4023Z" fill="white"/>
<path d="M641.369 97.5352H639.104C636.434 97.5352 634.129 99.1125 633.079 101.378C630.917 99.0178 627.811 97.5352 624.365 97.5352H621.635C618.189 97.5352 615.083 99.0178 612.921 101.378C611.871 99.1125 609.566 97.5352 606.896 97.5352H604.631C600.975 97.5352 598 100.492 598 104.126V114.791C598 116.369 599.288 117.652 600.872 117.652H609.83C609.98 119.4 611.45 120.777 613.237 120.777H632.764C634.55 120.777 636.02 119.4 636.17 117.652H645.025C646.666 117.652 648 116.323 648 114.689V104.126C648 100.492 645.025 97.5352 641.369 97.5352ZM600.93 104.126C600.93 102.107 602.59 100.465 604.631 100.465H606.896C608.937 100.465 610.598 102.107 610.598 104.126V105.129C609.613 107.694 609.816 109.231 609.816 114.723H600.93V104.126ZM633.254 117.357C633.254 117.628 633.034 117.848 632.764 117.848H613.236C612.966 117.848 612.746 117.628 612.746 117.357V109.354C612.746 104.452 616.734 100.465 621.635 100.465H624.365C629.266 100.465 633.254 104.452 633.254 109.354V117.357ZM645.07 114.689C645.07 114.74 645.616 114.723 636.184 114.723C636.184 109.19 636.386 107.69 635.402 105.129V104.126C635.402 102.107 637.063 100.465 639.104 100.465H641.369C643.41 100.465 645.07 102.107 645.07 104.126V114.689Z" fill="white"/>
<path d="M605.812 94.2148C608.774 94.2148 611.184 91.8054 611.184 88.8438C611.184 85.8821 608.774 83.4727 605.812 83.4727C602.851 83.4727 600.441 85.8821 600.441 88.8438C600.441 91.8054 602.851 94.2148 605.812 94.2148ZM605.812 86.4023C607.159 86.4023 608.254 87.4976 608.254 88.8438C608.254 90.1899 607.159 91.2852 605.812 91.2852C604.466 91.2852 603.371 90.1899 603.371 88.8438C603.371 87.4976 604.466 86.4023 605.812 86.4023Z" fill="white"/>
</g>
<path d="M588.484 207.432C586.636 207.432 585.04 207.108 583.696 206.46C582.376 205.812 581.332 204.924 580.564 203.796C579.82 202.644 579.388 201.348 579.268 199.908H583.768C583.984 200.94 584.512 201.804 585.352 202.5C586.192 203.172 587.236 203.508 588.484 203.508C589.828 203.508 590.92 203.016 591.76 202.032C592.624 201.048 593.056 199.824 593.056 198.36C593.056 196.848 592.624 195.648 591.76 194.76C590.92 193.872 589.852 193.428 588.556 193.428C587.476 193.428 586.54 193.692 585.748 194.22C584.956 194.748 584.392 195.408 584.056 196.2H579.628L581.788 181.8H595.756V185.832H585.244L584.092 191.664C584.62 191.088 585.34 190.62 586.252 190.26C587.164 189.876 588.184 189.684 589.312 189.684C591.112 189.684 592.612 190.092 593.812 190.908C595.012 191.7 595.924 192.756 596.548 194.076C597.172 195.372 597.484 196.788 597.484 198.324C597.484 200.076 597.1 201.636 596.332 203.004C595.588 204.372 594.532 205.452 593.164 206.244C591.82 207.036 590.26 207.432 588.484 207.432ZM612.104 207.432C609.776 207.432 607.784 206.892 606.128 205.812C604.472 204.708 603.188 203.184 602.276 201.24C601.388 199.272 600.944 196.992 600.944 194.4C600.944 191.832 601.388 189.564 602.276 187.596C603.188 185.628 604.472 184.104 606.128 183.024C607.784 181.92 609.776 181.368 612.104 181.368C614.432 181.368 616.424 181.92 618.08 183.024C619.736 184.104 621.008 185.628 621.896 187.596C622.808 189.564 623.264 191.832 623.264 194.4C623.264 196.992 622.808 199.272 621.896 201.24C621.008 203.184 619.736 204.708 618.08 205.812C616.424 206.892 614.432 207.432 612.104 207.432ZM612.104 203.292C614 203.292 615.548 202.5 616.748 200.916C617.948 199.332 618.548 197.16 618.548 194.4C618.548 191.64 617.948 189.468 616.748 187.884C615.548 186.3 614 185.508 612.104 185.508C610.184 185.508 608.624 186.3 607.424 187.884C606.248 189.468 605.66 191.64 605.66 194.4C605.66 197.16 606.248 199.332 607.424 200.916C608.624 202.5 610.184 203.292 612.104 203.292ZM637.663 207.432C635.335 207.432 633.343 206.892 631.687 205.812C630.031 204.708 628.747 203.184 627.835 201.24C626.947 199.272 626.503 196.992 626.503 194.4C626.503 191.832 626.947 189.564 627.835 187.596C628.747 185.628 630.031 184.104 631.687 183.024C633.343 181.92 635.335 181.368 637.663 181.368C639.991 181.368 641.983 181.92 643.639 183.024C645.295 184.104 646.567 185.628 647.455 187.596C648.367 189.564 648.823 191.832 648.823 194.4C648.823 196.992 648.367 199.272 647.455 201.24C646.567 203.184 645.295 204.708 643.639 205.812C641.983 206.892 639.991 207.432 637.663 207.432ZM637.663 203.292C639.559 203.292 641.107 202.5 642.307 200.916C643.507 199.332 644.107 197.16 644.107 194.4C644.107 191.64 643.507 189.468 642.307 187.884C641.107 186.3 639.559 185.508 637.663 185.508C635.743 185.508 634.183 186.3 632.983 187.884C631.807 189.468 631.219 191.64 631.219 194.4C631.219 197.16 631.807 199.332 632.983 200.916C634.183 202.5 635.743 203.292 637.663 203.292ZM652.457 198.504V194.652H659.225V188.424H663.149V194.652H669.881V198.504H663.149V204.732H659.225V198.504H652.457Z" fill="#3D3D3F"/>
<path opacity="0.7" d="M549.72 255L555.912 238.2H558.048L564.216 255H562.08L560.544 250.68H553.392L551.832 255H549.72ZM553.992 249.048H559.944L556.968 240.744L553.992 249.048ZM571.409 255.288C570.273 255.288 569.249 255.032 568.337 254.52C567.441 253.992 566.729 253.264 566.201 252.336C565.689 251.392 565.433 250.296 565.433 249.048C565.433 247.8 565.689 246.712 566.201 245.784C566.729 244.84 567.441 244.112 568.337 243.6C569.249 243.072 570.273 242.808 571.409 242.808C572.817 242.808 574.001 243.176 574.961 243.912C575.937 244.648 576.553 245.632 576.809 246.864H574.745C574.585 246.128 574.193 245.56 573.569 245.16C572.945 244.744 572.217 244.536 571.385 244.536C570.713 244.536 570.081 244.704 569.489 245.04C568.897 245.376 568.417 245.88 568.049 246.552C567.681 247.224 567.497 248.056 567.497 249.048C567.497 250.04 567.681 250.872 568.049 251.544C568.417 252.216 568.897 252.728 569.489 253.08C570.081 253.416 570.713 253.584 571.385 253.584C572.217 253.584 572.945 253.384 573.569 252.984C574.193 252.568 574.585 251.984 574.745 251.232H576.809C576.569 252.432 575.961 253.408 574.985 254.16C574.009 254.912 572.817 255.288 571.409 255.288ZM584.001 255C582.913 255 582.057 254.736 581.433 254.208C580.809 253.68 580.497 252.728 580.497 251.352V244.8H578.433V243.096H580.497L580.761 240.24H582.513V243.096H586.017V244.8H582.513V251.352C582.513 252.104 582.665 252.616 582.969 252.888C583.273 253.144 583.809 253.272 584.577 253.272H585.825V255H584.001ZM589.802 240.456C589.402 240.456 589.066 240.328 588.794 240.072C588.538 239.8 588.41 239.464 588.41 239.064C588.41 238.68 588.538 238.36 588.794 238.104C589.066 237.848 589.402 237.72 589.802 237.72C590.186 237.72 590.514 237.848 590.786 238.104C591.058 238.36 591.194 238.68 591.194 239.064C591.194 239.464 591.058 239.8 590.786 240.072C590.514 240.328 590.186 240.456 589.802 240.456ZM588.794 255V243.096H590.81V255H588.794ZM597.752 255L593.24 243.096H595.352L598.928 253.056L602.528 243.096H604.592L600.08 255H597.752ZM611.578 255.288C610.442 255.288 609.434 255.032 608.554 254.52C607.674 253.992 606.978 253.264 606.466 252.336C605.97 251.408 605.722 250.312 605.722 249.048C605.722 247.8 605.97 246.712 606.466 245.784C606.962 244.84 607.65 244.112 608.53 243.6C609.426 243.072 610.458 242.808 611.626 242.808C612.778 242.808 613.77 243.072 614.602 243.6C615.45 244.112 616.098 244.792 616.546 245.64C616.994 246.488 617.218 247.4 617.218 248.376C617.218 248.552 617.21 248.728 617.194 248.904C617.194 249.08 617.194 249.28 617.194 249.504H607.714C607.762 250.416 607.97 251.176 608.338 251.784C608.722 252.376 609.194 252.824 609.754 253.128C610.33 253.432 610.938 253.584 611.578 253.584C612.41 253.584 613.106 253.392 613.666 253.008C614.226 252.624 614.634 252.104 614.89 251.448H616.882C616.562 252.552 615.946 253.472 615.034 254.208C614.138 254.928 612.986 255.288 611.578 255.288ZM611.578 244.512C610.618 244.512 609.762 244.808 609.01 245.4C608.274 245.976 607.85 246.824 607.738 247.944H615.226C615.178 246.872 614.81 246.032 614.122 245.424C613.434 244.816 612.586 244.512 611.578 244.512ZM631.714 255.288C630.578 255.288 629.554 255.032 628.642 254.52C627.746 253.992 627.034 253.264 626.506 252.336C625.994 251.392 625.738 250.296 625.738 249.048C625.738 247.8 625.994 246.712 626.506 245.784C627.034 244.84 627.746 244.112 628.642 243.6C629.554 243.072 630.578 242.808 631.714 242.808C633.122 242.808 634.306 243.176 635.266 243.912C636.242 244.648 636.858 245.632 637.114 246.864H635.05C634.89 246.128 634.498 245.56 633.874 245.16C633.25 244.744 632.522 244.536 631.69 244.536C631.018 244.536 630.386 244.704 629.794 245.04C629.202 245.376 628.722 245.88 628.354 246.552C627.986 247.224 627.802 248.056 627.802 249.048C627.802 250.04 627.986 250.872 628.354 251.544C628.722 252.216 629.202 252.728 629.794 253.08C630.386 253.416 631.018 253.584 631.69 253.584C632.522 253.584 633.25 253.384 633.874 252.984C634.498 252.568 634.89 251.984 635.05 251.232H637.114C636.874 252.432 636.266 253.408 635.29 254.16C634.314 254.912 633.122 255.288 631.714 255.288ZM639.929 255V237.72H641.945V255H639.929ZM646.474 240.456C646.074 240.456 645.738 240.328 645.466 240.072C645.21 239.8 645.082 239.464 645.082 239.064C645.082 238.68 645.21 238.36 645.466 238.104C645.738 237.848 646.074 237.72 646.474 237.72C646.858 237.72 647.186 237.848 647.458 238.104C647.73 238.36 647.866 238.68 647.866 239.064C647.866 239.464 647.73 239.8 647.458 240.072C647.186 240.328 646.858 240.456 646.474 240.456ZM645.466 255V243.096H647.482V255H645.466ZM656.344 255.288C655.208 255.288 654.2 255.032 653.32 254.52C652.44 253.992 651.744 253.264 651.232 252.336C650.736 251.408 650.488 250.312 650.488 249.048C650.488 247.8 650.736 246.712 651.232 245.784C651.728 244.84 652.416 244.112 653.296 243.6C654.192 243.072 655.224 242.808 656.392 242.808C657.544 242.808 658.536 243.072 659.368 243.6C660.216 244.112 660.864 244.792 661.312 245.64C661.76 246.488 661.984 247.4 661.984 248.376C661.984 248.552 661.976 248.728 661.96 248.904C661.96 249.08 661.96 249.28 661.96 249.504H652.48C652.528 250.416 652.736 251.176 653.104 251.784C653.488 252.376 653.96 252.824 654.52 253.128C655.096 253.432 655.704 253.584 656.344 253.584C657.176 253.584 657.872 253.392 658.432 253.008C658.992 252.624 659.4 252.104 659.656 251.448H661.648C661.328 252.552 660.712 253.472 659.8 254.208C658.904 254.928 657.752 255.288 656.344 255.288ZM656.344 244.512C655.384 244.512 654.528 244.808 653.776 245.4C653.04 245.976 652.616 246.824 652.504 247.944H659.992C659.944 246.872 659.576 246.032 658.888 245.424C658.2 244.816 657.352 244.512 656.344 244.512ZM664.656 255V243.096H666.48L666.6 245.232C666.984 244.48 667.536 243.888 668.256 243.456C668.976 243.024 669.792 242.808 670.704 242.808C672.112 242.808 673.232 243.24 674.064 244.104C674.912 244.952 675.336 246.264 675.336 248.04V255H673.32V248.256C673.32 245.776 672.296 244.536 670.248 244.536C669.224 244.536 668.368 244.912 667.68 245.664C667.008 246.4 666.672 247.456 666.672 248.832V255H664.656ZM683.094 255C682.006 255 681.15 254.736 680.526 254.208C679.902 253.68 679.59 252.728 679.59 251.352V244.8H677.526V243.096H679.59L679.854 240.24H681.606V243.096H685.11V244.8H681.606V251.352C681.606 252.104 681.758 252.616 682.062 252.888C682.366 253.144 682.902 253.272 683.67 253.272H684.918V255H683.094ZM692.232 255.288C690.808 255.288 689.624 254.928 688.68 254.208C687.736 253.488 687.184 252.512 687.024 251.28H689.088C689.216 251.904 689.544 252.448 690.072 252.912C690.616 253.36 691.344 253.584 692.256 253.584C693.104 253.584 693.728 253.408 694.128 253.056C694.528 252.688 694.728 252.256 694.728 251.76C694.728 251.04 694.464 250.56 693.936 250.32C693.424 250.08 692.696 249.864 691.752 249.672C691.112 249.544 690.472 249.36 689.832 249.12C689.192 248.88 688.656 248.544 688.224 248.112C687.792 247.664 687.576 247.08 687.576 246.36C687.576 245.32 687.96 244.472 688.728 243.816C689.512 243.144 690.568 242.808 691.896 242.808C693.16 242.808 694.192 243.128 694.992 243.768C695.808 244.392 696.28 245.288 696.408 246.456H694.416C694.336 245.848 694.072 245.376 693.624 245.04C693.192 244.688 692.608 244.512 691.872 244.512C691.152 244.512 690.592 244.664 690.192 244.968C689.808 245.272 689.616 245.672 689.616 246.168C689.616 246.648 689.864 247.024 690.36 247.296C690.872 247.568 691.56 247.8 692.424 247.992C693.16 248.152 693.856 248.352 694.512 248.592C695.184 248.816 695.728 249.16 696.144 249.624C696.576 250.072 696.792 250.728 696.792 251.592C696.808 252.664 696.4 253.552 695.568 254.256C694.752 254.944 693.64 255.288 692.232 255.288Z" fill="#3D3D3F"/>
<rect x="969" y="54" width="99.68" height="90.0023" rx="22" fill="#F37168"/>
<path d="M1023.75 110.215C1023.92 109.837 1024.01 109.421 1024.01 108.985C1024.01 107.261 1022.6 105.859 1020.88 105.859H1019.55H1016.4L1017.89 103.349C1018.33 102.61 1018.44 101.714 1018.2 100.889C1017.96 100.065 1017.37 99.3749 1016.6 98.9951C1015.74 98.5675 1014.7 98.5732 1013.84 99.0099C1011.37 100.262 1009.12 101.973 1007.24 104.016C1007.07 103.718 1006.75 103.516 1006.39 103.516H997.791C997.252 103.516 996.815 103.953 996.815 104.492V109.863C996.815 110.402 997.252 110.84 997.791 110.84C998.331 110.84 998.768 110.402 998.768 109.863V105.469H1005.41V123.047H998.768V118.652C998.768 118.113 998.331 117.676 997.791 117.676C997.252 117.676 996.815 118.113 996.815 118.652V124.023C996.815 124.563 997.252 125 997.791 125H1006.39C1006.92 125 1007.36 124.563 1007.36 124.023V123.988C1008.52 124.642 1009.85 125 1011.19 125H1020.2C1021.93 125 1023.33 123.599 1023.33 121.876C1023.33 121.463 1023.25 121.068 1023.1 120.706H1023.16C1024.88 120.706 1026.28 119.304 1026.28 117.581C1026.28 116.749 1025.96 115.992 1025.43 115.432C1025.96 114.871 1026.28 114.115 1026.28 113.283C1026.28 111.763 1025.19 110.493 1023.75 110.215ZM1023.16 118.753H1016.79C1016.25 118.753 1015.81 119.19 1015.81 119.729C1015.81 120.269 1016.25 120.706 1016.79 120.706H1020.2C1020.85 120.706 1021.37 121.231 1021.37 121.876C1021.37 122.522 1020.85 123.047 1020.2 123.047H1011.19C1009.79 123.047 1008.42 122.528 1007.36 121.614V106.91L1007.43 106.822C1009.36 104.289 1011.88 102.191 1014.72 100.752C1015.04 100.592 1015.42 100.589 1015.74 100.747C1016.03 100.889 1016.24 101.137 1016.33 101.445C1016.42 101.753 1016.38 102.074 1016.21 102.351L1013.85 106.337C1013.67 106.639 1013.66 107.014 1013.84 107.319C1014.01 107.624 1014.33 107.812 1014.68 107.812H1020.88C1021.53 107.812 1022.05 108.338 1022.05 108.985C1022.05 109.631 1021.53 110.157 1020.88 110.157H1016.79C1016.25 110.157 1015.81 110.594 1015.81 111.134C1015.81 111.673 1016.25 112.11 1016.79 112.11H1023.16C1023.81 112.11 1024.33 112.636 1024.33 113.283C1024.33 113.929 1023.81 114.455 1023.16 114.455H1016.79C1016.25 114.455 1015.81 114.892 1015.81 115.432C1015.81 115.971 1016.25 116.408 1016.79 116.408H1023.16C1023.81 116.408 1024.33 116.934 1024.33 117.581C1024.33 118.227 1023.81 118.753 1023.16 118.753Z" fill="white"/>
<path d="M1028.75 87.0836L1024.56 86.4749L1022.69 82.678C1022.53 82.3447 1022.19 82.1337 1021.81 82.1337C1021.44 82.1337 1021.1 82.3447 1020.94 82.678L1019.07 86.4749L1014.88 87.0836C1014.51 87.1371 1014.2 87.3948 1014.09 87.7483C1013.97 88.1018 1014.07 88.4899 1014.33 88.7494L1017.37 91.7048L1016.65 95.8778C1016.59 96.2442 1016.74 96.6144 1017.04 96.8329C1017.34 97.0513 1017.74 97.0801 1018.07 96.9073L1021.81 94.937L1025.56 96.9073C1025.71 96.9825 1025.86 97.0194 1026.02 97.0194C1026.22 97.0194 1026.42 96.9564 1026.59 96.8329C1026.89 96.6144 1027.04 96.2442 1026.98 95.8778L1026.26 91.7048L1029.3 88.7494C1029.56 88.4899 1029.66 88.1018 1029.54 87.7483C1029.43 87.3948 1029.12 87.1371 1028.75 87.0836ZM1024.53 90.6644C1024.3 90.8888 1024.2 91.212 1024.25 91.5289L1024.72 94.2577L1022.27 92.9693C1022.13 92.8945 1021.97 92.8572 1021.81 92.8572C1021.66 92.8572 1021.5 92.8946 1021.36 92.9693L1018.91 94.2577L1019.38 91.5289C1019.43 91.2121 1019.33 90.8888 1019.1 90.6644L1017.11 88.7319L1019.85 88.3339C1020.17 88.2876 1020.45 88.0878 1020.59 87.7996L1021.81 85.3168L1023.04 87.7996C1023.18 88.0878 1023.46 88.2876 1023.78 88.3339L1026.52 88.7319L1024.53 90.6644Z" fill="white"/>
<path d="M1043.14 89.4154C1043.02 89.0619 1042.72 88.8042 1042.35 88.7507L1039.14 88.2844L1037.7 85.3754C1037.54 85.0421 1037.2 84.8311 1036.83 84.8311C1036.46 84.8311 1036.12 85.0421 1035.95 85.3754L1034.52 88.2844L1031.31 88.7507C1030.94 88.8042 1030.63 89.0619 1030.52 89.4154C1030.4 89.7689 1030.5 90.157 1030.76 90.4165L1033.09 92.6808L1032.54 95.8778C1032.48 96.2442 1032.63 96.6145 1032.93 96.8329C1033.23 97.0516 1033.63 97.0801 1033.96 96.9073L1036.83 95.3979L1039.7 96.9073C1039.84 96.9824 1040 97.0194 1040.15 97.0194C1040.36 97.0194 1040.56 96.9564 1040.73 96.8329C1041.03 96.6145 1041.18 96.2442 1041.12 95.8778L1040.57 92.6808L1042.89 90.4165C1043.16 90.157 1043.25 89.7689 1043.14 89.4154ZM1038.84 91.6404C1038.61 91.8648 1038.5 92.188 1038.56 92.5049L1038.86 94.2577L1037.28 93.4301C1037.14 93.3553 1036.98 93.318 1036.83 93.318C1036.67 93.318 1036.52 93.3554 1036.37 93.4301L1034.8 94.2577L1035.1 92.5049C1035.15 92.1881 1035.05 91.8648 1034.82 91.6404L1033.55 90.399L1035.31 90.1434C1035.62 90.0971 1035.9 89.8973 1036.04 89.6091L1036.83 88.0142L1037.61 89.6091C1037.76 89.8973 1038.03 90.0971 1038.35 90.1434L1040.11 90.399L1038.84 91.6404Z" fill="white"/>
<path d="M1003.06 92.6808L1002.51 95.8778C1002.45 96.2442 1002.6 96.6145 1002.9 96.8329C1003.2 97.0516 1003.6 97.0801 1003.93 96.9073L1006.8 95.3979L1009.67 96.9073C1009.82 96.9824 1009.97 97.0194 1010.13 97.0194C1010.33 97.0194 1010.53 96.9564 1010.7 96.8329C1011 96.6145 1011.15 96.2442 1011.09 95.8778L1010.54 92.6808L1012.86 90.4165C1013.13 90.157 1013.23 89.7689 1013.11 89.4154C1013 89.0619 1012.69 88.8042 1012.32 88.7507L1009.11 88.2844L1007.68 85.3754C1007.51 85.0421 1007.17 84.8311 1006.8 84.8311C1006.43 84.8311 1006.09 85.0421 1005.93 85.3754L1004.49 88.2844L1001.28 88.7507C1000.91 88.8042 1000.61 89.0619 1000.49 89.4154C1000.38 89.7689 1000.47 90.157 1000.74 90.4165L1003.06 92.6808ZM1005.28 90.1434C1005.6 90.0971 1005.87 89.8973 1006.01 89.6091L1006.8 88.0142L1007.59 89.6091C1007.73 89.8973 1008.01 90.0971 1008.32 90.1434L1010.08 90.399L1008.81 91.6404C1008.58 91.8648 1008.48 92.188 1008.53 92.5049L1008.83 94.2577L1007.26 93.4301C1007.11 93.3553 1006.96 93.318 1006.8 93.318C1006.65 93.318 1006.49 93.3554 1006.35 93.4301L1004.77 94.2577L1005.07 92.5049C1005.13 92.1881 1005.02 91.8648 1004.79 91.6404L1003.52 90.399L1005.28 90.1434Z" fill="white"/>
<path d="M1021.8 79.8358C1022.34 79.8358 1022.78 79.3985 1022.78 78.8593V75.9766C1022.78 75.4373 1022.34 75 1021.8 75C1021.27 75 1020.83 75.4373 1020.83 75.9766V78.8593C1020.83 79.3985 1021.27 79.8358 1021.8 79.8358Z" fill="white"/>
<path d="M1014.6 81.9406C1014.79 82.1312 1015.04 82.2266 1015.29 82.2266C1015.54 82.2266 1015.79 82.1312 1015.98 81.9406C1016.36 81.5593 1016.36 80.9409 1015.98 80.5594L1014.29 78.8678C1013.91 78.4866 1013.29 78.4866 1012.91 78.8678C1012.53 79.2492 1012.53 79.8676 1012.91 80.249L1014.6 81.9406Z" fill="white"/>
<path d="M1028.34 82.2266C1028.59 82.2266 1028.84 82.1312 1029.03 81.9406L1030.72 80.249C1031.1 79.8676 1031.1 79.2494 1030.72 78.8678C1030.34 78.4867 1029.72 78.4866 1029.34 78.8678L1027.65 80.5595C1027.27 80.9409 1027.27 81.5591 1027.65 81.9407C1027.84 82.1312 1028.09 82.2266 1028.34 82.2266Z" fill="white"/>
<path d="M998.482 114.948C998.664 114.767 998.768 114.515 998.768 114.258C998.768 114.001 998.664 113.749 998.482 113.567C998.299 113.386 998.048 113.281 997.791 113.281C997.535 113.281 997.283 113.386 997.1 113.567C996.918 113.749 996.815 114.001 996.815 114.258C996.815 114.515 996.918 114.767 997.1 114.948C997.283 115.13 997.534 115.234 997.791 115.234C998.048 115.234 998.3 115.13 998.482 114.948Z" fill="white"/>
<path d="M974.968 207V202.32H962.548V198.648L974.356 181.8H979.576V198.324H982.888V202.32H979.576V207H974.968ZM967.48 198.324H975.256V186.876L967.48 198.324ZM995.547 207.432C993.699 207.432 992.103 207.108 990.759 206.46C989.439 205.812 988.395 204.924 987.627 203.796C986.883 202.644 986.451 201.348 986.331 199.908H990.831C991.047 200.94 991.575 201.804 992.415 202.5C993.255 203.172 994.299 203.508 995.547 203.508C996.891 203.508 997.983 203.016 998.823 202.032C999.687 201.048 1000.12 199.824 1000.12 198.36C1000.12 196.848 999.687 195.648 998.823 194.76C997.983 193.872 996.915 193.428 995.619 193.428C994.539 193.428 993.603 193.692 992.811 194.22C992.019 194.748 991.455 195.408 991.119 196.2H986.691L988.851 181.8H1002.82V185.832H992.307L991.155 191.664C991.683 191.088 992.403 190.62 993.314 190.26C994.227 189.876 995.247 189.684 996.375 189.684C998.175 189.684 999.675 190.092 1000.87 190.908C1002.07 191.7 1002.99 192.756 1003.61 194.076C1004.23 195.372 1004.55 196.788 1004.55 198.324C1004.55 200.076 1004.16 201.636 1003.39 203.004C1002.65 204.372 1001.59 205.452 1000.23 206.244C998.883 207.036 997.323 207.432 995.547 207.432ZM1019.17 207.432C1016.84 207.432 1014.85 206.892 1013.19 205.812C1011.53 204.708 1010.25 203.184 1009.34 201.24C1008.45 199.272 1008.01 196.992 1008.01 194.4C1008.01 191.832 1008.45 189.564 1009.34 187.596C1010.25 185.628 1011.53 184.104 1013.19 183.024C1014.85 181.92 1016.84 181.368 1019.17 181.368C1021.49 181.368 1023.49 181.92 1025.14 183.024C1026.8 184.104 1028.07 185.628 1028.96 187.596C1029.87 189.564 1030.33 191.832 1030.33 194.4C1030.33 196.992 1029.87 199.272 1028.96 201.24C1028.07 203.184 1026.8 204.708 1025.14 205.812C1023.49 206.892 1021.49 207.432 1019.17 207.432ZM1019.17 203.292C1021.06 203.292 1022.61 202.5 1023.81 200.916C1025.01 199.332 1025.61 197.16 1025.61 194.4C1025.61 191.64 1025.01 189.468 1023.81 187.884C1022.61 186.3 1021.06 185.508 1019.17 185.508C1017.25 185.508 1015.69 186.3 1014.49 187.884C1013.31 189.468 1012.72 191.64 1012.72 194.4C1012.72 197.16 1013.31 199.332 1014.49 200.916C1015.69 202.5 1017.25 203.292 1019.17 203.292ZM1044.73 207.432C1042.4 207.432 1040.41 206.892 1038.75 205.812C1037.09 204.708 1035.81 203.184 1034.9 201.24C1034.01 199.272 1033.57 196.992 1033.57 194.4C1033.57 191.832 1034.01 189.564 1034.9 187.596C1035.81 185.628 1037.09 184.104 1038.75 183.024C1040.41 181.92 1042.4 181.368 1044.73 181.368C1047.05 181.368 1049.05 181.92 1050.7 183.024C1052.36 184.104 1053.63 185.628 1054.52 187.596C1055.43 189.564 1055.89 191.832 1055.89 194.4C1055.89 196.992 1055.43 199.272 1054.52 201.24C1053.63 203.184 1052.36 204.708 1050.7 205.812C1049.05 206.892 1047.05 207.432 1044.73 207.432ZM1044.73 203.292C1046.62 203.292 1048.17 202.5 1049.37 200.916C1050.57 199.332 1051.17 197.16 1051.17 194.4C1051.17 191.64 1050.57 189.468 1049.37 187.884C1048.17 186.3 1046.62 185.508 1044.73 185.508C1042.81 185.508 1041.25 186.3 1040.05 187.884C1038.87 189.468 1038.28 191.64 1038.28 194.4C1038.28 197.16 1038.87 199.332 1040.05 200.916C1041.25 202.5 1042.81 203.292 1044.73 203.292ZM1059.52 198.504V194.652H1066.29V188.424H1070.21V194.652H1076.94V198.504H1070.21V204.732H1066.29V198.504H1059.52Z" fill="#3D3D3F"/>
<path opacity="0.7" d="M942.776 255V238.2H944.792V245.616H953.504V238.2H955.52V255H953.504V247.272H944.792V255H942.776ZM962.905 255.288C961.913 255.288 961.089 255.12 960.433 254.784C959.777 254.448 959.289 254 958.969 253.44C958.649 252.88 958.489 252.272 958.489 251.616C958.489 250.4 958.953 249.464 959.881 248.808C960.809 248.152 962.073 247.824 963.673 247.824H966.889V247.68C966.889 246.64 966.617 245.856 966.073 245.328C965.529 244.784 964.801 244.512 963.889 244.512C963.105 244.512 962.425 244.712 961.849 245.112C961.289 245.496 960.937 246.064 960.793 246.816H958.729C958.809 245.952 959.097 245.224 959.593 244.632C960.105 244.04 960.737 243.592 961.489 243.288C962.241 242.968 963.041 242.808 963.889 242.808C965.553 242.808 966.801 243.256 967.633 244.152C968.481 245.032 968.905 246.208 968.905 247.68V255H967.105L966.985 252.864C966.649 253.536 966.153 254.112 965.497 254.592C964.857 255.056 963.993 255.288 962.905 255.288ZM963.217 253.584C963.985 253.584 964.641 253.384 965.185 252.984C965.745 252.584 966.169 252.064 966.457 251.424C966.745 250.784 966.889 250.112 966.889 249.408V249.384H963.841C962.657 249.384 961.817 249.592 961.321 250.008C960.841 250.408 960.601 250.912 960.601 251.52C960.601 252.144 960.825 252.648 961.273 253.032C961.737 253.4 962.385 253.584 963.217 253.584ZM971.929 260.28V243.096H973.753L973.945 245.064C974.329 244.488 974.873 243.968 975.577 243.504C976.297 243.04 977.209 242.808 978.313 242.808C979.497 242.808 980.529 243.08 981.409 243.624C982.289 244.168 982.969 244.912 983.449 245.856C983.945 246.8 984.193 247.872 984.193 249.072C984.193 250.272 983.945 251.344 983.449 252.288C982.969 253.216 982.281 253.952 981.385 254.496C980.505 255.024 979.473 255.288 978.289 255.288C977.313 255.288 976.441 255.088 975.673 254.688C974.921 254.288 974.345 253.728 973.945 253.008V260.28H971.929ZM978.073 253.536C978.873 253.536 979.577 253.352 980.185 252.984C980.793 252.6 981.273 252.072 981.625 251.4C981.977 250.728 982.153 249.944 982.153 249.048C982.153 248.152 981.977 247.368 981.625 246.696C981.273 246.024 980.793 245.504 980.185 245.136C979.577 244.752 978.873 244.56 978.073 244.56C977.273 244.56 976.569 244.752 975.961 245.136C975.353 245.504 974.873 246.024 974.521 246.696C974.169 247.368 973.993 248.152 973.993 249.048C973.993 249.944 974.169 250.728 974.521 251.4C974.873 252.072 975.353 252.6 975.961 252.984C976.569 253.352 977.273 253.536 978.073 253.536ZM987 260.28V243.096H988.824L989.016 245.064C989.4 244.488 989.944 243.968 990.648 243.504C991.368 243.04 992.28 242.808 993.384 242.808C994.568 242.808 995.6 243.08 996.48 243.624C997.36 244.168 998.04 244.912 998.52 245.856C999.016 246.8 999.264 247.872 999.264 249.072C999.264 250.272 999.016 251.344 998.52 252.288C998.04 253.216 997.352 253.952 996.456 254.496C995.576 255.024 994.544 255.288 993.36 255.288C992.384 255.288 991.512 255.088 990.744 254.688C989.992 254.288 989.416 253.728 989.016 253.008V260.28H987ZM993.144 253.536C993.944 253.536 994.648 253.352 995.256 252.984C995.864 252.6 996.344 252.072 996.696 251.4C997.048 250.728 997.224 249.944 997.224 249.048C997.224 248.152 997.048 247.368 996.696 246.696C996.344 246.024 995.864 245.504 995.256 245.136C994.648 244.752 993.944 244.56 993.144 244.56C992.344 244.56 991.64 244.752 991.032 245.136C990.424 245.504 989.944 246.024 989.592 246.696C989.24 247.368 989.064 248.152 989.064 249.048C989.064 249.944 989.24 250.728 989.592 251.4C989.944 252.072 990.424 252.6 991.032 252.984C991.64 253.352 992.344 253.536 993.144 253.536ZM1002.41 260.28L1005.36 253.848H1004.66L999.933 243.096H1002.12L1006.05 252.36L1010.23 243.096H1012.32L1004.52 260.28H1002.41ZM1026.27 255.288C1025.13 255.288 1024.11 255.032 1023.2 254.52C1022.3 253.992 1021.59 253.264 1021.06 252.336C1020.55 251.392 1020.29 250.296 1020.29 249.048C1020.29 247.8 1020.55 246.712 1021.06 245.784C1021.59 244.84 1022.3 244.112 1023.2 243.6C1024.11 243.072 1025.13 242.808 1026.27 242.808C1027.68 242.808 1028.86 243.176 1029.82 243.912C1030.8 244.648 1031.41 245.632 1031.67 246.864H1029.6C1029.44 246.128 1029.05 245.56 1028.43 245.16C1027.8 244.744 1027.08 244.536 1026.24 244.536C1025.57 244.536 1024.94 244.704 1024.35 245.04C1023.76 245.376 1023.28 245.88 1022.91 246.552C1022.54 247.224 1022.36 248.056 1022.36 249.048C1022.36 250.04 1022.54 250.872 1022.91 251.544C1023.28 252.216 1023.76 252.728 1024.35 253.08C1024.94 253.416 1025.57 253.584 1026.24 253.584C1027.08 253.584 1027.8 253.384 1028.43 252.984C1029.05 252.568 1029.44 251.984 1029.6 251.232H1031.67C1031.43 252.432 1030.82 253.408 1029.84 254.16C1028.87 254.912 1027.68 255.288 1026.27 255.288ZM1034.48 255V237.72H1036.5V255H1034.48ZM1041.03 240.456C1040.63 240.456 1040.29 240.328 1040.02 240.072C1039.76 239.8 1039.64 239.464 1039.64 239.064C1039.64 238.68 1039.76 238.36 1040.02 238.104C1040.29 237.848 1040.63 237.72 1041.03 237.72C1041.41 237.72 1041.74 237.848 1042.01 238.104C1042.28 238.36 1042.42 238.68 1042.42 239.064C1042.42 239.464 1042.28 239.8 1042.01 240.072C1041.74 240.328 1041.41 240.456 1041.03 240.456ZM1040.02 255V243.096H1042.04V255H1040.02ZM1050.9 255.288C1049.76 255.288 1048.75 255.032 1047.87 254.52C1046.99 253.992 1046.3 253.264 1045.79 252.336C1045.29 251.408 1045.04 250.312 1045.04 249.048C1045.04 247.8 1045.29 246.712 1045.79 245.784C1046.28 244.84 1046.97 244.112 1047.85 243.6C1048.75 243.072 1049.78 242.808 1050.95 242.808C1052.1 242.808 1053.09 243.072 1053.92 243.6C1054.77 244.112 1055.42 244.792 1055.87 245.64C1056.31 246.488 1056.54 247.4 1056.54 248.376C1056.54 248.552 1056.53 248.728 1056.51 248.904C1056.51 249.08 1056.51 249.28 1056.51 249.504H1047.03C1047.08 250.416 1047.29 251.176 1047.66 251.784C1048.04 252.376 1048.51 252.824 1049.07 253.128C1049.65 253.432 1050.26 253.584 1050.9 253.584C1051.73 253.584 1052.43 253.392 1052.99 253.008C1053.55 252.624 1053.95 252.104 1054.21 251.448H1056.2C1055.88 252.552 1055.27 253.472 1054.35 254.208C1053.46 254.928 1052.31 255.288 1050.9 255.288ZM1050.9 244.512C1049.94 244.512 1049.08 244.808 1048.33 245.4C1047.59 245.976 1047.17 246.824 1047.06 247.944H1054.55C1054.5 246.872 1054.13 246.032 1053.44 245.424C1052.75 244.816 1051.91 244.512 1050.9 244.512ZM1059.21 255V243.096H1061.03L1061.15 245.232C1061.54 244.48 1062.09 243.888 1062.81 243.456C1063.53 243.024 1064.35 242.808 1065.26 242.808C1066.67 242.808 1067.79 243.24 1068.62 244.104C1069.47 244.952 1069.89 246.264 1069.89 248.04V255H1067.87V248.256C1067.87 245.776 1066.85 244.536 1064.8 244.536C1063.78 244.536 1062.92 244.912 1062.23 245.664C1061.56 246.4 1061.23 247.456 1061.23 248.832V255H1059.21ZM1077.65 255C1076.56 255 1075.71 254.736 1075.08 254.208C1074.46 253.68 1074.15 252.728 1074.15 251.352V244.8H1072.08V243.096H1074.15L1074.41 240.24H1076.16V243.096H1079.67V244.8H1076.16V251.352C1076.16 252.104 1076.31 252.616 1076.62 252.888C1076.92 253.144 1077.46 253.272 1078.23 253.272H1079.47V255H1077.65ZM1086.79 255.288C1085.36 255.288 1084.18 254.928 1083.23 254.208C1082.29 253.488 1081.74 252.512 1081.58 251.28H1083.64C1083.77 251.904 1084.1 252.448 1084.63 252.912C1085.17 253.36 1085.9 253.584 1086.81 253.584C1087.66 253.584 1088.28 253.408 1088.68 253.056C1089.08 252.688 1089.28 252.256 1089.28 251.76C1089.28 251.04 1089.02 250.56 1088.49 250.32C1087.98 250.08 1087.25 249.864 1086.31 249.672C1085.67 249.544 1085.03 249.36 1084.39 249.12C1083.75 248.88 1083.21 248.544 1082.78 248.112C1082.35 247.664 1082.13 247.08 1082.13 246.36C1082.13 245.32 1082.51 244.472 1083.28 243.816C1084.07 243.144 1085.12 242.808 1086.45 242.808C1087.71 242.808 1088.75 243.128 1089.55 243.768C1090.36 244.392 1090.83 245.288 1090.96 246.456H1088.97C1088.89 245.848 1088.63 245.376 1088.18 245.04C1087.75 244.688 1087.16 244.512 1086.43 244.512C1085.71 244.512 1085.15 244.664 1084.75 244.968C1084.36 245.272 1084.17 245.672 1084.17 246.168C1084.17 246.648 1084.42 247.024 1084.91 247.296C1085.43 247.568 1086.11 247.8 1086.98 247.992C1087.71 248.152 1088.41 248.352 1089.07 248.592C1089.74 248.816 1090.28 249.16 1090.7 249.624C1091.13 250.072 1091.35 250.728 1091.35 251.592C1091.36 252.664 1090.95 253.552 1090.12 254.256C1089.31 254.944 1088.19 255.288 1086.79 255.288Z" fill="#3D3D3F"/>
<line x1="396" y1="36" x2="396" y2="278" stroke="#EBEBEB" stroke-opacity="0.8" stroke-width="2"/>
<line x1="817" y1="36" x2="817" y2="278" stroke="#EBEBEB" stroke-opacity="0.8" stroke-width="2"/>
<defs>
<clipPath id="clip0_2_67">
<rect width="45.2123" height="45.2123" fill="white" transform="translate(155 99) rotate(-45)"/>
</clipPath>
<clipPath id="clip1_2_67">
<rect width="50" height="50" fill="white" transform="translate(598 74)"/>
</clipPath>
</defs>
</svg>
